<svg id="Layer_1" data-name="Layer 1" xmlns="http://www.w3.org/2000/svg" viewBox="0 0 2010.3 417.81"><defs><style>.cls-1{fill:#fff;}</style></defs><title>Mediacord_icon</title><path class="cls-1" d="M328.73,380.72l-71.44-64.57,7.31,26.43c-2.7.13-5.12.36-7.54.36-55.71,0-111.42-.52-167.12.31-19.08.29-34-15.73-33.78-34,.65-68.4.25-136.8.26-205.21,0-23.16,12.5-35.65,36-35.67q83.56-.09,167.12,0c13.2,0,26.46-.39,39.6.58,18.47,1.37,29.61,14.32,29.61,33.06q0,130.59,0,261.17ZM168.18,142.14l-.78-2.28c-10.29,3.46-20.7,6.58-30.82,10.49-8,3.08-13,9.08-16.42,17.26a221.65,221.65,0,0,0-16.58,62.54c-1,8.88-3.84,19.49,5.77,25.63,8.75,5.59,18.18,10.7,28,13.86,12.77,4.1,15.35,2,20.72-9.69l-22.65-14.7,1-2.36c39.25,20.75,78.24,20.77,116.95-1.44l1.06,2.36-26.18,16.87c3.93,4.21,5.94,12.32,15.53,10.62,13-2.31,24.77-7,34.35-16.3,3.76-3.67,6-7.66,5.7-13.57-1-22.64-7.13-44-13.79-65.47-5.59-18.05-17.93-26.84-34.5-31.7-5.78-1.69-12-2-18-3l0,1.56,33.29,16.09-.73,2.11c-38.89-18-77.76-16.94-116.63.14l-.74-2.25Z"/><path class="cls-1" d="M164.18,199c8.52-.12,16.43,8,16.66,17.08S173.6,233.55,165,233.91c-9,.38-16.7-7.67-16.72-17.54C148.28,206.72,155.23,199.11,164.18,199Z"/><path class="cls-1" d="M237.06,216.63c-.07,9.45-7.31,17.3-16,17.31-8.86,0-16-7.74-16-17.34s7.11-17.55,15.74-17.63C230.34,198.89,237.14,206.28,237.06,216.63Z"/><path class="cls-1" d="M616.67,302.07h-39V223.38H557.45v19.67H537.78v19.67H518.69V242.85H499V223.38H478.76v78.69H440v-98h19.67V184H440V145.27h39v19.67h19.67v19.67H518.3V204.1h20.26V184.42h19.67V164.75h19.67V145.08h38.76ZM479,223.38V204.29H459.67v19.08Z"/><path class="cls-1" d="M793.73,302.07H656.41V282.2H636.73V204.1h19.67V184.42H793.53v39H773.86v19.67H754.38v20.26h39.35Zm-59.22-59V223.77H676.08v39h38.76V243.05Z"/><path class="cls-1" d="M970.79,302.07H833.47V282.2H813.79V204.1h19.87V184.42h78.1v39h-59v39.74h79.09V145.27h39Z"/><path class="cls-1" d="M1029.81,184h-39V145.27h39Zm0,118h-39V204.29h39Z"/><path class="cls-1" d="M1206.87,302.07h-39V223.38h-79.09v39.74h59v39h-78.3V282.2h-19.67V204.1h19.67V184.42h137.32Z"/><path class="cls-1" d="M1383.73,302.07H1246.61V282.2h-19.67V204.1h19.67V184.42h137.12v39H1265.89v39.74h117.84Z"/><path class="cls-1" d="M1561,282.4h-19.87v19.67H1423.67V282.2H1404V204.1h19.67V184.42h117.65v19.87H1561Zm-39.35-19.67v-39h-78.3v39Z"/><path class="cls-1" d="M1698.71,223.38H1620v78.69h-39v-98h19.67V184.42h98Z"/><path class="cls-1" d="M1875.77,302.07H1738.45V282.2h-19.67V204.1h19.87V184.42h78.1v39h-59v39.74h79.09V145.27h39Z"/></svg>